<svg width="40" height="37" viewBox="0 0 40 37" fill="none" xmlns="http://www.w3.org/2000/svg">
<path d="M11.1826 9.90989L12.5085 8.58407C12.6263 8.46622 12.7442 8.46622 12.862 8.58407L28.4184 24.1404C28.5363 24.2582 28.5363 24.3761 28.4184 24.4939L27.0926 25.8198C26.9747 25.9376 26.8569 25.9376 26.739 25.8198L11.1826 10.2634C11.0648 10.1456 11.0648 10.0277 11.1826 9.90989Z" fill="#39AEA9"/>
<path d="M11.5362 23.7864L26.3854 8.93714C26.5033 8.81929 26.6211 8.81929 26.739 8.93714L28.0648 10.263C28.1827 10.3808 28.1827 10.4987 28.0648 10.6165L13.2155 25.4657C13.0977 25.5836 12.9798 25.5836 12.862 25.4657L11.5362 24.1399C11.4183 24.0221 11.4183 23.9042 11.5362 23.7864Z" fill="#39AEA9"/>
</svg>
