<svg width="104" height="19" viewBox="0 0 104 19" fill="none" xmlns="http://www.w3.org/2000/svg">
<path d="M9.408 18.336C7.776 18.336 6.32 17.98 5.04 17.268C3.768 16.548 2.764 15.536 2.028 14.232C1.3 12.92 0.936 11.376 0.936 9.6C0.936 7.824 1.304 6.284 2.04 4.98C2.784 3.668 3.8 2.656 5.088 1.944C6.384 1.224 7.856 0.863999 9.504 0.863999C10.36 0.863999 11.176 0.955999 11.952 1.14C12.728 1.324 13.408 1.56 13.992 1.848L13.752 3.96C13.152 3.672 12.492 3.428 11.772 3.228C11.052 3.028 10.288 2.928 9.48 2.928C8.16 2.928 7.052 3.228 6.156 3.828C5.26 4.42 4.58 5.22 4.116 6.228C3.66 7.236 3.432 8.36 3.432 9.6C3.432 10.84 3.656 11.964 4.104 12.972C4.56 13.98 5.232 14.784 6.12 15.384C7.016 15.976 8.12 16.272 9.432 16.272C10.264 16.272 11.032 16.184 11.736 16.008C12.448 15.824 13.12 15.576 13.752 15.264L13.992 17.376C13.392 17.648 12.716 17.876 11.964 18.06C11.212 18.244 10.36 18.336 9.408 18.336ZM21.0609 18.24C19.8289 18.24 18.7769 17.968 17.9049 17.424C17.0409 16.872 16.3769 16.136 15.9129 15.216C15.4569 14.288 15.2289 13.256 15.2289 12.12C15.2289 10.984 15.4569 9.956 15.9129 9.036C16.3769 8.108 17.0409 7.372 17.9049 6.828C18.7769 6.276 19.8289 6 21.0609 6C22.2849 6 23.3329 6.276 24.2049 6.828C25.0769 7.372 25.7409 8.108 26.1969 9.036C26.6609 9.956 26.8929 10.984 26.8929 12.12C26.8929 13.256 26.6609 14.288 26.1969 15.216C25.7409 16.136 25.0769 16.872 24.2049 17.424C23.3329 17.968 22.2849 18.24 21.0609 18.24ZM21.0609 16.32C22.2289 16.32 23.1249 15.952 23.7489 15.216C24.3729 14.472 24.6849 13.44 24.6849 12.12C24.6849 10.8 24.3729 9.772 23.7489 9.036C23.1249 8.292 22.2289 7.92 21.0609 7.92C19.9009 7.92 19.0049 8.292 18.3729 9.036C17.7489 9.772 17.4369 10.8 17.4369 12.12C17.4369 13.44 17.7489 14.472 18.3729 15.216C19.0049 15.952 19.9009 16.32 21.0609 16.32ZM33.3443 18.24C32.4243 18.24 31.6403 18.056 30.9923 17.688C30.3443 17.312 29.8483 16.744 29.5043 15.984C29.1683 15.224 29.0003 14.256 29.0003 13.08V6.24H31.1603V12.48C31.1603 13.728 31.3723 14.68 31.7963 15.336C32.2283 15.992 32.9283 16.32 33.8963 16.32C34.5603 16.32 35.1763 16.16 35.7443 15.84C36.3123 15.52 36.7043 15.008 36.9203 14.304L36.6083 15.48V6.24H38.7683V18H36.8483L36.4163 15.696L36.9923 16.08C36.6003 16.808 36.1203 17.352 35.5523 17.712C34.9923 18.064 34.2563 18.24 33.3443 18.24ZM41.7062 18V6.24H43.4822L43.7462 8.184C44.3462 7.44 44.9182 6.892 45.4622 6.54C46.0142 6.18 46.6022 6 47.2262 6C47.4262 6 47.6102 6.024 47.7782 6.072L47.5622 8.448C47.4582 8.424 47.3462 8.408 47.2262 8.4C47.1142 8.384 46.9862 8.376 46.8422 8.376C46.2182 8.376 45.6422 8.516 45.1142 8.796C44.5942 9.068 44.2262 9.368 44.0102 9.696V18H41.7062ZM49.2999 18V6.24H51.4599V18H49.2999ZM49.2999 3.6V1.2H51.4599V3.6H49.2999ZM60.0259 18.24C58.6419 18.24 57.4779 17.956 56.5339 17.388C55.5899 16.82 54.8739 16.068 54.3859 15.132C53.9059 14.188 53.6659 13.152 53.6659 12.024C53.6659 10.928 53.8899 9.924 54.3379 9.012C54.7939 8.1 55.4499 7.372 56.3059 6.828C57.1699 6.276 58.2099 6 59.4259 6C60.4019 6 61.2699 6.196 62.0299 6.588C62.7979 6.972 63.3979 7.536 63.8299 8.28C64.2699 9.016 64.4899 9.912 64.4899 10.968C64.4899 11.136 64.4819 11.32 64.4659 11.52C64.4579 11.712 64.4339 11.912 64.3939 12.12H55.8739C55.9779 13.208 56.2379 14.056 56.6539 14.664C57.0699 15.272 57.5939 15.7 58.2259 15.948C58.8579 16.196 59.5459 16.32 60.2899 16.32C60.8339 16.32 61.4019 16.264 61.9939 16.152C62.5859 16.04 63.1459 15.864 63.6739 15.624L63.9619 17.328C63.5059 17.528 62.9499 17.732 62.2939 17.94C61.6379 18.14 60.8819 18.24 60.0259 18.24ZM56.0659 10.632H62.2579C62.2579 10.08 62.1539 9.6 61.9459 9.192C61.7379 8.784 61.4219 8.472 60.9979 8.256C60.5739 8.032 60.0339 7.92 59.3779 7.92C58.4179 7.92 57.6779 8.16 57.1579 8.64C56.6459 9.112 56.2819 9.776 56.0659 10.632ZM66.6671 18V6.24H68.4431L68.7071 8.184C69.3071 7.44 69.8791 6.892 70.4231 6.54C70.9751 6.18 71.5631 6 72.1871 6C72.3871 6 72.5711 6.024 72.7391 6.072L72.5231 8.448C72.4191 8.424 72.3071 8.408 72.1871 8.4C72.0751 8.384 71.9471 8.376 71.8031 8.376C71.1791 8.376 70.6031 8.516 70.0751 8.796C69.5551 9.068 69.1871 9.368 68.9711 9.696V18H66.6671Z" fill="#39AEA9"/>
<path d="M74.7169 18V1.2H80.2609C81.3889 1.2 82.3809 1.38 83.2369 1.74C84.0929 2.1 84.7569 2.68 85.2289 3.48C85.7089 4.28 85.9489 5.336 85.9489 6.648C85.9489 7.936 85.7089 8.984 85.2289 9.792C84.7569 10.592 84.0929 11.18 83.2369 11.556C82.3809 11.932 81.3889 12.12 80.2609 12.12H77.1169V18H74.7169ZM77.1169 10.08H79.9249C81.1489 10.08 82.0649 9.804 82.6729 9.252C83.2889 8.692 83.5969 7.832 83.5969 6.672C83.5969 5.504 83.3049 4.64 82.7209 4.08C82.1449 3.52 81.2129 3.24 79.9249 3.24H77.1169V10.08ZM90.4031 18.24C89.6751 18.24 89.0391 18.092 88.4951 17.796C87.9511 17.5 87.5271 17.096 87.2231 16.584C86.9271 16.072 86.7791 15.488 86.7791 14.832C86.7791 14.168 86.9231 13.6 87.2111 13.128C87.5071 12.648 87.8991 12.252 88.3871 11.94C88.8831 11.62 89.4351 11.368 90.0431 11.184C90.6511 10.992 91.2791 10.856 91.9271 10.776C92.5831 10.688 93.2111 10.64 93.8111 10.632C93.8111 9.512 93.5911 8.78 93.1511 8.436C92.7111 8.092 92.0751 7.92 91.2431 7.92C90.8031 7.92 90.3311 7.988 89.8271 8.124C89.3311 8.26 88.7711 8.544 88.1471 8.976L87.8351 7.224C88.3071 6.864 88.8951 6.572 89.5991 6.348C90.3031 6.116 91.0431 6 91.8191 6C92.8111 6 93.6111 6.176 94.2191 6.528C94.8271 6.872 95.2711 7.456 95.5511 8.28C95.8311 9.104 95.9711 10.224 95.9711 11.64V14.04C95.9711 14.6 95.9951 15.064 96.0431 15.432C96.0991 15.792 96.2191 16.064 96.4031 16.248C96.5951 16.424 96.8991 16.512 97.3151 16.512H97.5311L97.1951 18.24H97.0271C96.3311 18.24 95.7911 18.172 95.4071 18.036C95.0311 17.9 94.7431 17.704 94.5431 17.448C94.3431 17.192 94.1631 16.88 94.0031 16.512C93.5631 17.024 93.0431 17.44 92.4431 17.76C91.8431 18.08 91.1631 18.24 90.4031 18.24ZM90.8111 16.512C91.3871 16.512 91.9431 16.368 92.4791 16.08C93.0231 15.792 93.4671 15.408 93.8111 14.928V12.12C92.6671 12.16 91.7391 12.272 91.0271 12.456C90.3231 12.64 89.8071 12.916 89.4791 13.284C89.1511 13.652 88.9871 14.128 88.9871 14.712C88.9871 15.344 89.1551 15.804 89.4911 16.092C89.8351 16.372 90.2751 16.512 90.8111 16.512ZM102.222 18.24C101.462 18.24 100.858 18.104 100.41 17.832C99.9704 17.552 99.6544 17.196 99.4624 16.764C99.2704 16.332 99.1744 15.88 99.1744 15.408V-1.43051e-06H101.334V14.16C101.334 14.832 101.378 15.336 101.466 15.672C101.554 16.008 101.73 16.232 101.994 16.344C102.266 16.456 102.678 16.512 103.23 16.512L102.918 18.24H102.222Z" fill="black"/>
</svg>
