<svg width="68" height="68" viewBox="0 0 68 68" fill="none" xmlns="http://www.w3.org/2000/svg">
<path d="M66.299 58.9335H1.70027C0.761038 58.9335 0.000302026 59.9478 0.000302026 61.2001V65.7334C0.000302026 66.9857 0.761038 68 1.70027 68H66.299C67.2383 68 67.999 66.9857 67.999 65.7334V61.2001C67.999 59.9478 67.2383 58.9335 66.299 58.9335ZM8.55858 43.8136C9.22581 44.7826 10.1629 45.3323 11.1436 45.3308L25.0132 45.3053C26.1078 45.3034 27.1866 44.9578 28.1624 44.2967L59.0763 23.3799C61.9174 21.4575 64.4641 18.7135 66.197 15.1195C68.1424 11.0849 68.3539 8.16515 67.5857 6.10251C66.8197 4.03846 64.9571 2.52265 61.3968 2.21382C58.2253 1.93899 55.0708 3.05248 52.2297 4.97345L41.7632 12.0553L18.5268 0.430265C18.2474 0.179317 17.9228 0.0324266 17.5866 0.00478139C17.2503 -0.0228639 16.9147 0.0697394 16.6143 0.273017L9.6285 5.00036C8.49483 5.76677 8.22071 7.78407 9.07919 9.04205L25.6773 22.9393L14.7114 30.3597L7.02436 25.1932C6.75952 25.0152 6.46699 24.9227 6.1704 24.9232C5.87381 24.9237 5.58146 25.0171 5.31695 25.1961L1.05322 28.0818C-0.0560093 28.8326 -0.348191 30.7904 0.461418 32.0597L8.55858 43.8136Z" fill="#39AEA9"/>
</svg>
